<svg xmlns="http://www.w3.org/2000/svg" width="458.861" height="462.882" viewBox="0 0 458.861 462.882">
  <g id="Groupe_2" data-name="Groupe 2" transform="translate(-0.139)" opacity="0.19">
    <path fill="#FFFFFF" id="Tracé_1" data-name="Tracé 1" d="M229.541,318.232c-37.739,0-69.5-24.243-81.482-57.86H.139c14.234,114.144,111.424,202.511,229.4,202.511,118.035,0,215.168-88.367,229.459-202.511H311.022A86.525,86.525,0,0,1,229.541,318.232Zm0-173.581a86.525,86.525,0,0,1,81.482,57.86H459C444.708,88.367,347.576,0,229.541,0,111.563,0,14.373,88.367.139,202.511H148.073C160.036,168.894,191.8,144.651,229.541,144.651Zm-57.86,86.79a57.86,57.86,0,1,0,57.86-57.86A57.881,57.881,0,0,0,171.68,231.441Zm86.79,0a28.93,28.93,0,1,1-28.93-28.93A28.922,28.922,0,0,1,258.471,231.441Z" fill-rule="evenodd"/>
  </g>
</svg>
